<svg width="500" height="500" viewBox="0 0 500 500" fill="none" xmlns="http://www.w3.org/2000/svg">
  <path d="M52.4612 82.0644C49.5142 60.8286 64.1242 41.1944 85.0936 38.2099L350.873 0.382711C371.843 -2.60177 391.23 12.1937 394.177 33.4295L447.539 417.935C450.485 439.171 435.876 458.805 414.906 461.791L149.127 499.618C128.157 502.602 108.77 487.806 105.823 466.571L52.4612 82.0644Z" fill="url(#paint0_linear_1_3)"/>
  <path d="M71.4455 79.3625C69.972 68.7446 77.277 58.9274 87.7617 57.4352L353.541 19.608C364.026 18.1157 373.72 25.5135 375.194 36.1314L428.554 420.638C430.028 431.255 422.723 441.073 412.239 442.565L146.459 480.392C135.974 481.884 126.28 474.486 124.806 463.869L71.4455 79.3625Z" fill="white"/>
  <path d="M345.684 155.411L269.276 355.808C267.699 359.945 262.253 360.729 259.559 357.207L128.482 185.77C125.548 181.932 128.351 176.395 133.131 176.588L238.597 180.841C239.269 180.868 239.942 180.772 240.579 180.559L338.633 147.908C343.157 146.402 347.399 150.915 345.684 155.411Z" fill="url(#paint1_linear_1_3)"/>
  <path d="M281.511 130.996L207.658 156.695C206.445 157.117 205.671 158.319 205.777 159.616L212.413 240.24C212.569 242.139 214.483 243.363 216.238 242.684L236.694 234.783C238.608 234.044 240.647 235.56 240.526 237.633L238.648 269.691C238.523 271.848 240.722 273.371 242.656 272.466L255.154 266.618C257.092 265.713 259.292 267.239 259.161 269.4L256.099 319.77C255.907 322.921 260.166 324.028 261.472 321.168L262.344 319.257L306.56 185.431C307.3 183.191 305.175 181.051 302.966 181.813L281.791 189.111C279.801 189.797 277.786 188.11 278.077 186.001L285.232 134.103C285.524 131.992 283.503 130.303 281.511 130.996Z" fill="url(#paint2_linear_1_3)"/>
  <path d="M189.983 153.577C193.387 162.328 191.131 172.698 186.06 180.571L187.153 200.548L200.388 190.159L213.709 198.954L208.779 152.343C202.803 155.793 195.779 156.001 189.983 153.577Z" fill="#FFDD09"/>
  <path d="M219.246 136.683C225.122 144.006 235.231 147.237 244.585 146.782L261.339 157.717L245.724 163.984L246.68 179.918L208.779 152.343C214.755 148.892 218.447 142.914 219.246 136.683Z" fill="#FFDD09"/>
  <path d="M216.617 123.088C222.566 133.392 219.082 146.394 208.779 152.343C198.475 158.291 185.473 154.808 179.524 144.504C173.576 134.2 177.059 121.198 187.363 115.249C197.667 109.301 210.669 112.785 216.617 123.088Z" fill="#FFDD09"/>
  <path d="M187.363 115.249C185.302 116.439 183.48 118.041 181.982 119.73C192.079 113.9 205.081 117.384 211.03 127.688C215.67 135.725 214.564 145.706 208.573 152.462C208.573 152.462 208.573 152.462 208.779 152.343C219.082 146.394 222.566 133.392 216.617 123.088C210.669 112.785 197.667 109.301 187.363 115.249Z" fill="#FD9808"/>
  <path d="M236.92 148.735L254.562 160.255L261.934 158.747L245.18 147.812L236.92 148.735Z" fill="#FD9808"/>
  <path d="M190.87 173.673L192.026 194.712L187.034 200.342L185.941 180.365L190.87 173.673Z" fill="white"/>
  <path d="M179.524 144.504C176.55 139.352 175.874 133.423 177.474 128.103C169.284 124.863 145.767 113.162 133.934 120.269C125.192 125.591 123.482 132.623 123.595 138.053C123.644 142.421 129.656 153.787 132.004 157.377C135.867 163.115 149.946 189.882 162.742 193.484C178.669 197.752 197.092 172.553 189.983 153.577C185.726 151.914 182.023 148.831 179.524 144.504Z" fill="#FFDD09"/>
  <path d="M216.617 123.088C213.643 117.936 208.846 114.386 203.439 113.112C204.728 104.399 206.353 78.1831 218.424 71.4887C227.198 66.6977 234.349 68.6139 238.789 71.5457C242.548 73.7722 249.385 84.662 251.32 88.4903C254.358 94.7044 270.498 120.281 267.221 133.164C262.953 149.091 231.919 152.446 219.039 136.802C219.934 132.164 219.116 127.416 216.617 123.088Z" fill="#FFDD09"/>
  <path d="M238.694 69.952C234.047 67.1393 227.103 65.1043 218.328 69.8951C217.298 70.49 216.593 71.1719 215.681 71.973C222.871 69.1962 228.634 71.0889 232.511 73.5214C236.27 75.7479 243.107 86.6377 245.042 90.466C248.08 96.6801 264.221 122.257 260.943 135.139C260.072 138.39 258.194 140.848 255.666 143.132C261.294 140.981 265.85 136.977 267.125 131.57C270.522 118.893 254.263 93.1106 251.224 86.8966C249.289 83.0685 242.452 72.1785 238.694 69.952Z" fill="#FD9808"/>
  <path d="M122.469 137.055C122.356 131.624 124.066 124.592 132.602 119.389C133.633 118.794 134.576 118.524 135.725 118.136C129.932 122.854 128.483 128.911 128.651 133.485C128.7 137.853 134.712 149.219 137.06 152.809C141.129 158.429 155.002 185.314 167.679 188.71C170.929 189.581 173.997 189.184 177.239 188.137C172.563 191.935 166.817 193.879 161.497 192.28C148.82 188.883 134.946 161.998 130.878 156.379C128.53 152.789 122.518 141.423 122.469 137.055Z" fill="white"/>
  <path d="M209.968 154.403C198.634 160.947 184.007 157.028 177.464 145.694C170.92 134.36 174.839 119.733 186.173 113.189C197.507 106.645 212.134 110.564 218.678 121.898C225.222 133.233 221.302 147.86 209.968 154.403ZM188.553 117.31C179.486 122.545 176.35 134.247 181.585 143.314C186.82 152.382 198.522 155.517 207.589 150.282C216.657 145.047 219.792 133.346 214.557 124.278C209.322 115.211 197.62 112.075 188.553 117.31Z" fill="black"/>
  <path d="M180.714 146.565C180.302 146.803 179.771 146.835 179.24 146.866L158.866 144.891C157.685 144.749 156.559 143.75 156.788 142.244C156.811 140.857 157.929 139.937 159.435 140.166L179.809 142.141C180.99 142.284 182.116 143.282 181.887 144.788C181.832 145.645 181.332 146.208 180.714 146.565Z" fill="black"/>
  <path d="M172.238 165.197C171.62 165.554 170.883 165.705 170.113 165.324C169.019 164.857 168.392 163.295 168.86 162.201L177.336 143.569C177.803 142.475 179.365 141.848 180.459 142.316C181.553 142.783 182.18 144.345 181.713 145.439L173.236 164.071C172.943 164.515 172.65 164.959 172.238 165.197Z" fill="black"/>
  <path d="M176.583 193.187C171.843 195.923 166.889 196.86 162.013 195.554C150.637 192.505 139.041 173.373 132.886 163.188C131.696 161.127 130.744 159.479 129.943 158.567C127.834 155.389 121.345 143.199 121.027 137.888C121.001 132.132 122.647 124.038 132.42 118.121C143.841 111.252 163.535 119.665 174.032 124.045C175.57 124.806 176.99 125.36 177.965 125.621C179.059 126.089 179.773 127.325 179.306 128.419C178.237 133.707 178.968 138.78 181.585 143.314C183.727 147.023 186.986 149.813 190.919 151.389C191.569 151.563 191.926 152.181 192.283 152.8C196.853 164.998 191.395 178.865 183.994 186.985C181.703 189.681 179.262 191.64 176.583 193.187ZM135.33 122.21C135.124 122.33 135.124 122.33 135.33 122.21C128.855 126.224 125.749 131.314 126.044 138.013C126.149 141.524 131.598 152.391 133.946 155.981C134.541 157.012 135.817 158.747 137.007 160.808C142.448 169.756 153.806 188.477 163.233 191.003C168.758 192.484 175.092 189.651 180.496 183.783C186.487 177.027 191.335 165.436 187.955 155.298C183.459 153.222 179.962 150.021 177.464 145.693C174.608 140.748 173.639 135.262 174.795 129.649C174.145 129.475 173.376 129.095 172.606 128.715C162.759 124.509 144.603 116.857 135.33 122.21Z" fill="black"/>
  <path d="M214.898 201.015C214.074 201.49 213.218 201.435 212.33 200.849L200.341 192.933L188.548 202.489C187.843 203.171 186.987 203.116 186.012 202.855C185.242 202.475 184.767 201.65 184.616 200.913L183.523 180.937C183.491 180.405 183.579 180.08 183.872 179.636C189.03 171.438 190.493 162.075 187.598 154.68C187.328 153.737 187.589 152.762 188.088 152.198C188.793 151.517 189.737 151.247 190.625 151.833C196.095 154.17 202.144 153.7 207.296 150.726C207.914 150.369 208.976 150.305 209.539 150.804C210.102 151.304 210.665 151.803 210.935 152.746L215.865 199.357C216.309 199.651 215.723 200.539 214.898 201.015ZM199.198 188.098C200.022 187.622 200.879 187.678 201.767 188.264L210.972 194.214L206.964 155.863C202.692 157.505 198.031 157.998 193.599 156.985C195.021 164.682 193.406 173.307 188.541 181.062L189.315 195.727L198.992 188.217L199.198 188.098Z" fill="black"/>
  <path d="M217.807 125.149C217.189 125.506 216.452 125.657 215.683 125.277C214.589 124.809 213.962 123.248 214.429 122.154L222.906 103.522C223.373 102.428 224.934 101.801 226.029 102.268C227.123 102.736 227.75 104.297 227.282 105.391L218.806 124.023C218.512 124.467 218.22 124.911 217.807 125.149Z" fill="black"/>
  <path d="M238.181 127.124C237.769 127.362 237.238 127.394 236.707 127.426L216.333 125.451C215.152 125.308 214.026 124.31 214.255 122.804C214.397 121.622 215.396 120.496 216.902 120.726L237.276 122.701C238.457 122.843 239.583 123.842 239.354 125.348C239.298 126.204 238.799 126.767 238.181 127.124Z" fill="black"/>
  <path d="M260.249 144.882C257.57 146.429 254.653 147.564 251.173 148.199C240.44 150.549 225.702 148.342 217.304 138.079C216.947 137.461 216.709 137.048 216.764 136.192C217.366 131.998 216.579 127.781 214.438 124.072C211.939 119.744 207.792 116.369 202.711 115.181C201.41 114.833 200.816 113.802 200.958 112.621C201.1 111.44 201.33 109.934 201.559 108.427C202.895 96.9403 205.576 75.8842 217.235 69.4275C227.039 64.0417 235.078 66.5442 240.05 69.4441C244.577 72.0508 251.803 84.0901 253.5 87.5061C254.095 88.5365 254.841 90.3038 256.031 92.3647C261.774 102.787 272.545 122.396 269.497 133.773C268.483 138.205 264.988 142.146 260.249 144.882ZM221.75 135.786C228.84 143.783 241.302 145.38 250.149 143.57C257.933 141.823 263.552 137.755 265.033 132.229C267.559 122.802 257.025 103.606 251.996 94.4196C250.806 92.359 249.735 90.5041 249.347 89.355C247.617 85.4077 240.725 75.3739 237.736 73.5278C232.202 70.1288 226.121 70.0672 219.614 73.5496L219.408 73.6685C210.135 79.0225 207.683 98.5722 206.284 108.997C206.228 109.853 206.173 110.709 205.999 111.359C211.232 113.284 215.823 116.953 218.559 121.693C221.177 126.226 222.201 130.855 221.75 135.786Z" fill="black"/>
  <path d="M247.87 181.978C247.046 182.454 245.983 182.518 245.301 181.813L207.4 154.238C206.837 153.738 206.361 152.914 206.416 152.058C206.471 151.202 206.971 150.639 207.589 150.282C212.741 147.308 216.171 142.304 216.883 136.398C216.938 135.542 217.525 134.654 218.468 134.384C219.411 134.114 220.386 134.376 220.862 135.2C225.819 141.406 234.659 144.82 244.338 144.452C244.869 144.42 245.313 144.713 245.638 144.8L262.392 155.735C263.161 156.115 263.431 157.058 263.376 157.914C263.321 158.77 262.734 159.658 261.791 159.928L247.738 165.569L248.599 179.909C249.075 180.733 248.694 181.502 247.87 181.978ZM212.941 152.413L244.15 175.059L243.599 164.112C243.536 163.049 244.122 162.161 245.065 161.891L256.408 157.266L244.094 149.263C234.946 149.599 226.669 146.685 220.714 141.605C219.257 145.744 216.499 149.534 212.941 152.413Z" fill="black"/>
  <defs>
  <linearGradient id="paint0_linear_1_3" x1="67.517" y1="20.5823" x2="406.771" y2="502.15" gradientUnits="userSpaceOnUse">
  <stop stop-color="#49C7FF"/>
  <stop offset="1" stop-color="#BD36FF"/>
  </linearGradient>
  <linearGradient id="paint1_linear_1_3" x1="123.8" y1="171.11" x2="278.381" y2="327.268" gradientUnits="userSpaceOnUse">
  <stop stop-color="#41D1FF"/>
  <stop offset="1" stop-color="#BD34FE"/>
  </linearGradient>
  <linearGradient id="paint2_linear_1_3" x1="227.227" y1="142.756" x2="273.4" y2="300.072" gradientUnits="userSpaceOnUse">
  <stop stop-color="#FFEA83"/>
  <stop offset="0.0833333" stop-color="#FFDD35"/>
  <stop offset="1" stop-color="#FFA800"/>
  </linearGradient>
  </defs>
  </svg>
  